<?xml version="1.0" encoding="UTF-8" standalone="no"?>
<svg
   width="280"
   height="280"
   viewBox="0 0 280 280"
   fill="none"
   version="1.1"
   id="svg6"
   sodipodi:docname="splash.svg"
   inkscape:version="1.2.2 (732a01da63, 2022-12-09)"
   xmlns:inkscape="http://www.inkscape.org/namespaces/inkscape"
   xmlns:sodipodi="http://sodipodi.sourceforge.net/DTD/sodipodi-0.dtd"
   xmlns="http://www.w3.org/2000/svg"
   xmlns:svg="http://www.w3.org/2000/svg">
  <defs
     id="defs10" />
  <sodipodi:namedview
     id="namedview8"
     pagecolor="#505050"
     bordercolor="#ffffff"
     borderopacity="1"
     inkscape:showpageshadow="0"
     inkscape:pageopacity="0"
     inkscape:pagecheckerboard="1"
     inkscape:deskcolor="#505050"
     showgrid="false"
     showguides="true"
     inkscape:zoom="2"
     inkscape:cx="150.75"
     inkscape:cy="195"
     inkscape:window-width="1920"
     inkscape:window-height="1009"
     inkscape:window-x="1352"
     inkscape:window-y="-8"
     inkscape:window-maximized="1"
     inkscape:current-layer="svg6" />
  <path
     d="m 56.484007,205.24784 h -3.1108 c -0.0568,-0.403 -0.1728,-0.76 -0.348,-1.073 -0.1752,-0.317 -0.4001,-0.587 -0.67471,-0.809 -0.27462,-0.223 -0.59186,-0.393 -0.95171,-0.512 -0.35511,-0.118 -0.741,-0.177 -1.15767,-0.177 -0.75284,0 -1.40861,0.187 -1.96733,0.561 -0.55871,0.369 -0.99195,0.909 -1.29971,1.619 -0.30777,0.706 -0.46165,1.563 -0.46165,2.571 0,1.037 0.15388,1.908 0.46165,2.614 0.3125,0.705 0.7481,1.238 1.30682,1.598 0.55871,0.36 1.20502,0.54 1.93892,0.54 0.41193,0 0.79308,-0.055 1.14346,-0.164 0.35512,-0.109 0.66998,-0.267 0.94461,-0.476 0.27462,-0.213 0.50192,-0.471 0.68182,-0.774 0.1847,-0.303 0.3125,-0.648 0.3835,-1.037 l 3.1108,0.015 c -0.0805,0.667 -0.2817,1.311 -0.6037,1.931 -0.3172,0.616 -0.7457,1.168 -1.2855,1.655 -0.535,0.483 -1.1742,0.867 -1.9176,1.151 -0.73864,0.279 -1.57434,0.419 -2.50711,0.419 -1.29735,0 -2.45739,-0.294 -3.48011,-0.881 -1.018,-0.587 -1.82292,-1.437 -2.41478,-2.55 -0.58712,-1.112 -0.88068,-2.459 -0.88068,-4.041 0,-1.586 0.2983,-2.935 0.89489,-4.048 0.59659,-1.113 1.40625,-1.96 2.42898,-2.543 1.02272,-0.587 2.17329,-0.88 3.4517,-0.88 0.8428,0 1.62405,0.118 2.34371,0.355 0.7245,0.237 1.366,0.582 1.9248,1.037 0.5587,0.45 1.0132,1.001 1.3636,1.655 0.3551,0.653 0.5824,1.401 0.6818,2.244 z m 7.0774,9.666 c -1.1032,0 -2.0573,-0.234 -2.8622,-0.703 -0.8002,-0.474 -1.4181,-1.132 -1.8537,-1.974 -0.4356,-0.848 -0.6534,-1.831 -0.6534,-2.948 0,-1.127 0.2178,-2.112 0.6534,-2.954 0.4356,-0.848 1.0535,-1.506 1.8537,-1.975 0.8049,-0.473 1.759,-0.71 2.8622,-0.71 1.1032,0 2.055,0.237 2.8551,0.71 0.805,0.469 1.4252,1.127 1.8608,1.975 0.4356,0.842 0.6534,1.827 0.6534,2.954 0,1.117 -0.2178,2.1 -0.6534,2.948 -0.4356,0.842 -1.0558,1.5 -1.8608,1.974 -0.8001,0.469 -1.7519,0.703 -2.8551,0.703 z m 0.0142,-2.344 c 0.5019,0 0.921,-0.142 1.2571,-0.426 0.3362,-0.289 0.5895,-0.682 0.76,-1.179 0.1752,-0.497 0.2628,-1.063 0.2628,-1.697 0,-0.635 -0.0876,-1.201 -0.2628,-1.698 -0.1705,-0.497 -0.4238,-0.89 -0.76,-1.179 -0.3361,-0.288 -0.7552,-0.433 -1.2571,-0.433 -0.5066,0 -0.9327,0.145 -1.2784,0.433 -0.3409,0.289 -0.5989,0.682 -0.7741,1.179 -0.1705,0.497 -0.2557,1.063 -0.2557,1.698 0,0.634 0.0852,1.2 0.2557,1.697 0.1752,0.497 0.4332,0.89 0.7741,1.179 0.3457,0.284 0.7718,0.426 1.2784,0.426 z m 10.348,-4.176 v 6.307 h -3.0255 v -10.909 h 2.8835 v 1.925 h 0.1278 c 0.2415,-0.635 0.6463,-1.137 1.2145,-1.506 0.5682,-0.374 1.2571,-0.561 2.0668,-0.561 0.7576,0 1.4181,0.166 1.9815,0.497 0.5635,0.331 1.0014,0.805 1.3139,1.42 0.3125,0.611 0.4688,1.34 0.4688,2.188 v 6.946 h -3.0256 v -6.406 c 0.0048,-0.668 -0.1657,-1.189 -0.5113,-1.563 -0.3457,-0.379 -0.8215,-0.568 -1.4276,-0.568 -0.4072,0 -0.767,0.088 -1.0795,0.263 -0.3078,0.175 -0.5493,0.431 -0.7245,0.767 -0.1704,0.331 -0.258,0.731 -0.2628,1.2 z m 15.2184,-4.602 v 2.273 h -6.5696 v -2.273 z m -5.0781,-2.614 h 3.0256 v 10.171 c 0,0.279 0.0426,0.497 0.1278,0.653 0.0852,0.152 0.2036,0.258 0.3551,0.32 0.1563,0.061 0.3362,0.092 0.5398,0.092 0.1421,0 0.2841,-0.012 0.4261,-0.035 0.1421,-0.029 0.251,-0.05 0.3267,-0.064 l 0.4759,2.251 c -0.1515,0.047 -0.3646,0.102 -0.6392,0.163 -0.2746,0.067 -0.6084,0.107 -1.0014,0.121 -0.7292,0.029 -1.3684,-0.069 -1.9176,-0.291 -0.5445,-0.223 -0.9683,-0.568 -1.2713,-1.037 -0.3031,-0.469 -0.4522,-1.061 -0.4475,-1.776 z m 7.049,13.523 v -10.909 h 2.933303 v 1.903 h 0.1136 c 0.1989,-0.677 0.5327,-1.188 1.0014,-1.534 0.4688,-0.35 1.0085,-0.525 1.6193,-0.525 0.1515,0 0.3149,0.009 0.4901,0.028 0.1752,0.019 0.3291,0.045 0.4616,0.078 v 2.685 c -0.142,-0.043 -0.3385,-0.081 -0.5895,-0.114 -0.2509,-0.033 -0.4805,-0.05 -0.6889,-0.05 -0.445,0 -0.8428,0.098 -1.1932,0.292 -0.3456,0.189 -0.6202,0.454 -0.8238,0.795 -0.1989,0.341 -0.2983,0.734 -0.2983,1.179 v 6.172 z m 12.604803,0.213 c -1.1032,0 -2.0573,-0.234 -2.8622,-0.703 -0.8002,-0.474 -1.4181,-1.132 -1.8537,-1.974 -0.4356,-0.848 -0.6534,-1.831 -0.6534,-2.948 0,-1.127 0.2178,-2.112 0.6534,-2.954 0.4356,-0.848 1.0535,-1.506 1.8537,-1.975 0.8049,-0.473 1.759,-0.71 2.8622,-0.71 1.1032,0 2.0549,0.237 2.8551,0.71 0.8049,0.469 1.4252,1.127 1.8608,1.975 0.4356,0.842 0.6534,1.827 0.6534,2.954 0,1.117 -0.2178,2.1 -0.6534,2.948 -0.4356,0.842 -1.0559,1.5 -1.8608,1.974 -0.8002,0.469 -1.7519,0.703 -2.8551,0.703 z m 0.0142,-2.344 c 0.5019,0 0.9209,-0.142 1.2571,-0.426 0.3362,-0.289 0.5895,-0.682 0.7599,-1.179 0.1752,-0.497 0.2628,-1.063 0.2628,-1.697 0,-0.635 -0.0876,-1.201 -0.2628,-1.698 -0.1704,-0.497 -0.4237,-0.89 -0.7599,-1.179 -0.3362,-0.288 -0.7552,-0.433 -1.2571,-0.433 -0.5066,0 -0.9328,0.145 -1.2784,0.433 -0.3409,0.289 -0.599,0.682 -0.7742,1.179 -0.1704,0.497 -0.2557,1.063 -0.2557,1.698 0,0.634 0.0853,1.2 0.2557,1.697 0.1752,0.497 0.4333,0.89 0.7742,1.179 0.3456,0.284 0.7718,0.426 1.2784,0.426 z m 10.348,-12.414 v 14.545 h -3.0256 v -14.545 z m 7.3952,14.758 c -1.1221,0 -2.088,-0.227 -2.8977,-0.682 -0.8049,-0.459 -1.4252,-1.108 -1.8608,-1.946 -0.4356,-0.843 -0.6534,-1.839 -0.6534,-2.99 0,-1.122 0.2178,-2.107 0.6534,-2.954 0.4356,-0.848 1.0488,-1.508 1.8395,-1.982 0.7955,-0.473 1.7282,-0.71 2.7983,-0.71 0.7197,0 1.3897,0.116 2.0099,0.348 0.625,0.227 1.1695,0.57 1.6336,1.03 0.4687,0.459 0.8333,1.037 1.0937,1.733 0.2604,0.691 0.3906,1.501 0.3906,2.429 v 0.831 h -9.2116 v -1.875 h 6.3636 c 0,-0.436 -0.0947,-0.822 -0.2841,-1.158 -0.1894,-0.336 -0.4521,-0.599 -0.7883,-0.788 -0.3315,-0.195 -0.7173,-0.292 -1.1577,-0.292 -0.4593,0 -0.8665,0.107 -1.2216,0.32 -0.3504,0.208 -0.625,0.49 -0.8238,0.845 -0.1989,0.351 -0.3007,0.741 -0.3054,1.172 v 1.783 c 0,0.539 0.0994,1.006 0.2983,1.399 0.2036,0.393 0.49,0.696 0.8593,0.909 0.3693,0.213 0.8073,0.32 1.3139,0.32 0.3362,0 0.644,-0.048 0.9233,-0.143 0.2794,-0.094 0.5185,-0.236 0.7174,-0.426 0.1988,-0.189 0.3504,-0.421 0.4545,-0.696 l 2.7983,0.185 c -0.142,0.672 -0.4332,1.259 -0.8736,1.761 -0.4356,0.498 -0.999,0.886 -1.6903,1.165 -0.6866,0.275 -1.4796,0.412 -2.3793,0.412 z m 11.6673,-0.213 v -14.545 h 9.6306 v 2.535 h -6.5553 v 3.466 h 5.9162 v 2.535 h -5.9162 v 6.009 z m 11.6426,0 v -10.909 h 3.025 v 10.909 z m 1.52,-12.315 c -0.45,0 -0.836,-0.149 -1.158,-0.448 -0.317,-0.303 -0.476,-0.665 -0.476,-1.086 0,-0.417 0.159,-0.775 0.476,-1.073 0.322,-0.303 0.708,-0.454 1.158,-0.454 0.449,0 0.833,0.151 1.15,0.454 0.322,0.298 0.483,0.656 0.483,1.073 0,0.421 -0.161,0.783 -0.483,1.086 -0.317,0.299 -0.701,0.448 -1.15,0.448 z m 6.955,6.008 v 6.307 h -3.026 v -10.909 h 2.884 v 1.925 h 0.127 c 0.242,-0.635 0.647,-1.137 1.215,-1.506 0.568,-0.374 1.257,-0.561 2.067,-0.561 0.757,0 1.418,0.166 1.981,0.497 0.564,0.331 1.002,0.805 1.314,1.42 0.313,0.611 0.469,1.34 0.469,2.188 v 6.946 h -3.026 v -6.406 c 0.005,-0.668 -0.165,-1.189 -0.511,-1.563 -0.346,-0.379 -0.822,-0.568 -1.428,-0.568 -0.407,0 -0.767,0.088 -1.079,0.263 -0.308,0.175 -0.549,0.431 -0.725,0.767 -0.17,0.331 -0.258,0.731 -0.262,1.2 z m 12.526,6.513 c -0.696,0 -1.316,-0.121 -1.861,-0.362 -0.544,-0.246 -0.975,-0.609 -1.292,-1.087 -0.313,-0.483 -0.469,-1.084 -0.469,-1.804 0,-0.606 0.111,-1.115 0.334,-1.527 0.222,-0.412 0.525,-0.743 0.909,-0.994 0.383,-0.251 0.819,-0.441 1.307,-0.568 0.492,-0.128 1.008,-0.218 1.548,-0.27 0.635,-0.067 1.146,-0.128 1.534,-0.185 0.388,-0.061 0.67,-0.151 0.845,-0.27 0.176,-0.118 0.263,-0.293 0.263,-0.525 v -0.043 c 0,-0.45 -0.142,-0.798 -0.426,-1.044 -0.279,-0.246 -0.677,-0.369 -1.193,-0.369 -0.545,0 -0.978,0.12 -1.3,0.362 -0.322,0.237 -0.535,0.535 -0.639,0.895 l -2.798,-0.227 c 0.142,-0.663 0.421,-1.236 0.838,-1.719 0.416,-0.488 0.954,-0.862 1.612,-1.122 0.663,-0.266 1.43,-0.398 2.301,-0.398 0.606,0 1.186,0.071 1.74,0.213 0.559,0.142 1.054,0.362 1.484,0.66 0.436,0.299 0.779,0.682 1.03,1.151 0.251,0.464 0.377,1.02 0.377,1.669 v 7.358 h -2.87 v -1.513 h -0.085 c -0.175,0.341 -0.409,0.642 -0.703,0.902 -0.294,0.256 -0.646,0.457 -1.058,0.604 -0.412,0.142 -0.888,0.213 -1.428,0.213 z m 0.867,-2.088 c 0.445,0 0.838,-0.088 1.179,-0.263 0.341,-0.18 0.608,-0.421 0.802,-0.724 0.194,-0.303 0.291,-0.647 0.291,-1.03 v -1.158 c -0.094,0.062 -0.224,0.119 -0.39,0.171 -0.161,0.047 -0.343,0.092 -0.547,0.135 -0.204,0.037 -0.407,0.073 -0.611,0.106 -0.203,0.029 -0.388,0.055 -0.554,0.078 -0.355,0.052 -0.665,0.135 -0.93,0.249 -0.265,0.113 -0.471,0.267 -0.618,0.461 -0.147,0.19 -0.22,0.427 -0.22,0.711 0,0.412 0.149,0.726 0.447,0.944 0.303,0.213 0.687,0.32 1.151,0.32 z m 10.65,-4.425 v 6.307 h -3.026 v -10.909 h 2.884 v 1.925 h 0.127 c 0.242,-0.635 0.647,-1.137 1.215,-1.506 0.568,-0.374 1.257,-0.561 2.067,-0.561 0.757,0 1.418,0.166 1.981,0.497 0.564,0.331 1.002,0.805 1.314,1.42 0.313,0.611 0.469,1.34 0.469,2.188 v 6.946 h -3.026 v -6.406 c 0.005,-0.668 -0.165,-1.189 -0.511,-1.563 -0.346,-0.379 -0.822,-0.568 -1.428,-0.568 -0.407,0 -0.767,0.088 -1.079,0.263 -0.308,0.175 -0.549,0.431 -0.725,0.767 -0.17,0.331 -0.258,0.731 -0.262,1.2 z m 14.344,6.52 c -1.117,0 -2.078,-0.237 -2.883,-0.71 -0.8,-0.478 -1.416,-1.141 -1.847,-1.989 -0.426,-0.847 -0.639,-1.823 -0.639,-2.926 0,-1.117 0.215,-2.097 0.646,-2.94 0.436,-0.848 1.054,-1.508 1.854,-1.982 0.8,-0.478 1.752,-0.717 2.855,-0.717 0.952,0 1.785,0.173 2.5,0.518 0.715,0.346 1.281,0.831 1.698,1.456 0.416,0.625 0.646,1.359 0.689,2.202 h -2.856 c -0.08,-0.545 -0.293,-0.982 -0.639,-1.314 -0.341,-0.336 -0.788,-0.504 -1.342,-0.504 -0.469,0 -0.878,0.128 -1.229,0.383 -0.345,0.251 -0.615,0.618 -0.809,1.101 -0.195,0.483 -0.292,1.068 -0.292,1.754 0,0.696 0.095,1.288 0.284,1.776 0.195,0.488 0.467,0.859 0.817,1.115 0.351,0.256 0.76,0.384 1.229,0.384 0.346,0 0.656,-0.071 0.93,-0.213 0.28,-0.143 0.509,-0.348 0.689,-0.618 0.185,-0.275 0.306,-0.604 0.362,-0.988 h 2.856 c -0.048,0.834 -0.275,1.568 -0.682,2.202 -0.403,0.63 -0.959,1.122 -1.669,1.477 -0.711,0.356 -1.551,0.533 -2.522,0.533 z m 11.781,0 c -1.122,0 -2.088,-0.227 -2.897,-0.682 -0.805,-0.459 -1.426,-1.108 -1.861,-1.946 -0.436,-0.843 -0.654,-1.839 -0.654,-2.99 0,-1.122 0.218,-2.107 0.654,-2.954 0.435,-0.848 1.049,-1.508 1.839,-1.982 0.796,-0.473 1.728,-0.71 2.799,-0.71 0.719,0 1.389,0.116 2.009,0.348 0.625,0.227 1.17,0.57 1.634,1.03 0.469,0.459 0.833,1.037 1.094,1.733 0.26,0.691 0.39,1.501 0.39,2.429 v 0.831 h -9.211 v -1.875 h 6.363 c 0,-0.436 -0.094,-0.822 -0.284,-1.158 -0.189,-0.336 -0.452,-0.599 -0.788,-0.788 -0.332,-0.195 -0.717,-0.292 -1.158,-0.292 -0.459,0 -0.866,0.107 -1.221,0.32 -0.351,0.208 -0.625,0.49 -0.824,0.845 -0.199,0.351 -0.301,0.741 -0.306,1.172 v 1.783 c 0,0.539 0.1,1.006 0.299,1.399 0.203,0.393 0.49,0.696 0.859,0.909 0.369,0.213 0.807,0.32 1.314,0.32 0.336,0 0.644,-0.048 0.923,-0.143 0.28,-0.094 0.519,-0.236 0.718,-0.426 0.198,-0.189 0.35,-0.421 0.454,-0.696 l 2.798,0.185 c -0.142,0.672 -0.433,1.259 -0.873,1.761 -0.436,0.498 -0.999,0.886 -1.69,1.165 -0.687,0.275 -1.48,0.412 -2.38,0.412 z m 6.982,-0.213 v -10.909 h 3.025 v 10.909 z m 1.52,-12.315 c -0.45,0 -0.836,-0.149 -1.158,-0.448 -0.317,-0.303 -0.476,-0.665 -0.476,-1.086 0,-0.417 0.159,-0.775 0.476,-1.073 0.322,-0.303 0.708,-0.454 1.158,-0.454 0.449,0 0.833,0.151 1.15,0.454 0.322,0.298 0.483,0.656 0.483,1.073 0,0.421 -0.161,0.783 -0.483,1.086 -0.317,0.299 -0.701,0.448 -1.15,0.448 z m 3.929,12.315 v -10.909 h 2.933 v 1.903 h 0.114 c 0.199,-0.677 0.533,-1.188 1.001,-1.534 0.469,-0.35 1.009,-0.525 1.62,-0.525 0.151,0 0.314,0.009 0.49,0.028 0.175,0.019 0.329,0.045 0.461,0.078 v 2.685 c -0.142,-0.043 -0.338,-0.081 -0.589,-0.114 -0.251,-0.033 -0.481,-0.05 -0.689,-0.05 -0.445,0 -0.843,0.098 -1.193,0.292 -0.346,0.189 -0.621,0.454 -0.824,0.795 -0.199,0.341 -0.298,0.734 -0.298,1.179 v 6.172 z m 12.605,0.213 c -1.103,0 -2.058,-0.234 -2.862,-0.703 -0.801,-0.474 -1.419,-1.132 -1.854,-1.974 -0.436,-0.848 -0.654,-1.831 -0.654,-2.948 0,-1.127 0.218,-2.112 0.654,-2.954 0.435,-0.848 1.053,-1.506 1.854,-1.975 0.804,-0.473 1.759,-0.71 2.862,-0.71 1.103,0 2.055,0.237 2.855,0.71 0.805,0.469 1.425,1.127 1.861,1.975 0.435,0.842 0.653,1.827 0.653,2.954 0,1.117 -0.218,2.1 -0.653,2.948 -0.436,0.842 -1.056,1.5 -1.861,1.974 -0.8,0.469 -1.752,0.703 -2.855,0.703 z m 0.014,-2.344 c 0.502,0 0.921,-0.142 1.257,-0.426 0.336,-0.289 0.59,-0.682 0.76,-1.179 0.175,-0.497 0.263,-1.063 0.263,-1.697 0,-0.635 -0.088,-1.201 -0.263,-1.698 -0.17,-0.497 -0.424,-0.89 -0.76,-1.179 -0.336,-0.288 -0.755,-0.433 -1.257,-0.433 -0.507,0 -0.933,0.145 -1.278,0.433 -0.341,0.289 -0.599,0.682 -0.775,1.179 -0.17,0.497 -0.255,1.063 -0.255,1.698 0,0.634 0.085,1.2 0.255,1.697 0.176,0.497 0.434,0.89 0.775,1.179 0.345,0.284 0.771,0.426 1.278,0.426 z"
     fill="#ffffff"
     id="path2" />
  <path
     d="M 182.17301,67.437844 H 86.149907 c -2.522,0 -4.5662,2.0499 -4.5662,4.5662 0,2.5164 2.0442,4.5663 4.5662,4.5663 h 96.023103 c 6.403,0 11.62,5.2111 11.62,11.6314 v 59.004096 c 0,6.409 -5.217,11.62 -11.62,11.62 H 86.604807 c -6.4031,0 -11.6199,-5.211 -11.6199,-11.62 V 87.746944 c 0,-2.5279 -2.0499,-4.572 -4.5778,-4.572 -2.5163,0 -4.5604,2.0441 -4.5604,4.572 v 59.458896 c 0,11.453 9.3109,20.758 20.7581,20.758 h 95.568203 c 11.447,0 20.758,-9.305 20.758,-20.758 V 88.201744 c 0,-11.4587 -9.311,-20.7639 -20.758,-20.7639 z m -15.346,64.871396 c -2.775,0 -5.021,-2.2514 -5.021,-5.0096 0,-2.5335 -2.05,-4.5777 -4.572,-4.5777 -2.522,0 -4.566,2.0442 -4.566,4.5777 0,6.1901 4.031,11.4185 9.587,13.3302 v 2.585 c 0,2.522 2.05,4.578 4.572,4.578 2.528,0 4.567,-2.056 4.567,-4.578 v -2.585 c 5.562,-1.9117 9.587,-7.1401 9.587,-13.3302 0,-7.8195 -6.345,-14.1708 -14.154,-14.1708 -2.775,0 -5.021,-2.2514 -5.021,-5.0153 0,-2.7697 2.246,-5.0212 5.021,-5.0212 2.764,0 5.016,2.2515 5.016,5.0212 0,2.522 2.044,4.5719 4.572,4.5719 2.522,0 4.566,-2.0499 4.566,-4.5719 0,-6.2016 -4.025,-11.418496 -9.587,-13.335896 v -2.597 c 0,-2.522 -2.039,-4.5719 -4.567,-4.5719 -2.522,0 -4.572,2.0499 -4.572,4.5719 v 2.597 c -5.556,1.9174 -9.587,7.134296 -9.587,13.335896 0,7.808 6.351,14.1535 14.159,14.1535 2.764,0 5.016,2.2514 5.016,5.0326 0,2.7582 -2.252,5.0096 -5.016,5.0096 z m -78.137703,12.8116 h 45.696703 c 2.5221,0 4.5662,-2.055 4.5662,-4.572 0,-2.516 -2.0441,-4.5659 -4.5662,-4.5659 H 88.689307 c -2.5221,0 -4.5662,2.0499 -4.5662,4.5659 0,2.517 2.0441,4.572 4.5662,4.572 z m 0,-45.6964 h 45.696703 c 2.5221,0 4.5662,-2.049896 4.5662,-4.566196 0,-2.5279 -2.0441,-4.572 -4.5662,-4.572 H 88.689307 c -2.5221,0 -4.5662,2.0441 -4.5662,4.572 0,2.5163 2.0441,4.566196 4.5662,4.566196 z m 0,22.8426 h 45.696703 c 2.5221,0 4.5662,-2.0441 4.5662,-4.572 0,-2.522 -2.0441,-4.5662 -4.5662,-4.5662 H 88.689307 c -2.5221,0 -4.5662,2.0442 -4.5662,4.5662 0,2.5279 2.0441,4.572 4.5662,4.572 z"
     fill="#ffffff"
     id="path4" />
</svg>
